<svg width="80" height="50" viewBox="0 0 80 50" fill="none" xmlns="http://www.w3.org/2000/svg">
<path d="M5.66055 6.01192H1.14335C0.638769 6.01192 0.322073 5.94654 0.193242 5.81579C0.0644136 5.68504 0 5.36364 0 4.85157V3.39708C0 2.88501 0.0644136 2.56361 0.193242 2.43287C0.322073 2.30213 0.638769 2.23676 1.14335 2.23676H14.4775C14.9713 2.23676 15.288 2.30758 15.4276 2.44921C15.5564 2.57995 15.6208 2.89591 15.6208 3.39708V4.85157C15.6208 5.36364 15.5564 5.68504 15.4276 5.81579C15.2987 5.94654 14.982 6.01192 14.4775 6.01192H9.94414V23.3841C9.94414 23.8962 9.87972 24.2176 9.75088 24.3483C9.62205 24.4791 9.30535 24.5444 8.80078 24.5444H6.80392C6.29935 24.5444 5.98265 24.4791 5.85381 24.3483C5.72497 24.2176 5.66055 23.8962 5.66055 23.3841V6.01192ZM20.9826 9.5746C23.5591 9.5746 25.615 10.3972 27.1502 12.0423C28.46 13.4478 29.1149 15.1964 29.1149 17.2883C29.1149 19.6852 28.2775 21.6191 26.6027 23.0899C25.1212 24.3755 23.2156 25.0184 20.886 25.0184C19.3937 25.0184 17.9873 24.6806 16.6668 24.0051C15.3571 23.3405 14.3586 22.36 13.6716 21.0634C13.0811 19.9303 12.7858 18.6338 12.7858 17.1739C12.7858 14.7988 13.6555 12.8867 15.3947 11.4376C16.232 10.7403 17.2519 10.2338 18.4543 9.91777C19.3239 9.68899 20.1666 9.5746 20.9826 9.5746ZM20.9504 13.2353C19.8339 13.2353 18.8838 13.633 18.1 14.4284C17.3163 15.2346 16.9245 16.2097 16.9245 17.3536C16.9245 18.4323 17.3163 19.3693 18.1 20.1646C18.8838 20.9599 19.8339 21.3576 20.9504 21.3576C22.0669 21.3576 23.017 20.9599 23.8007 20.1646C24.5844 19.3802 24.9762 18.4268 24.9762 17.3046C24.9762 16.1607 24.5844 15.2019 23.8007 14.4284C22.9955 13.633 22.0454 13.2353 20.9504 13.2353ZM53.0125 17.9584C53.0553 19.1895 53.367 20.1373 53.9468 20.802C54.5693 21.4992 55.428 21.8479 56.523 21.8479C57.8758 21.8479 58.9227 21.314 59.6636 20.2463C59.8031 20.0502 59.9801 19.9522 60.1947 19.9522C60.2269 19.9522 60.4203 19.9794 60.7744 20.0338L62.2239 20.279C62.6208 20.3444 62.8892 20.4261 63.0287 20.5241C63.1683 20.6222 63.2385 20.7856 63.2385 21.0144C63.2385 21.2214 63.1255 21.5102 62.9003 21.8806C62.6747 22.251 62.4062 22.5888 62.095 22.8938C60.6671 24.3102 58.826 25.0184 56.5716 25.0184C55.1543 25.0184 53.85 24.7133 52.6584 24.1032C51.2304 23.3732 50.2052 22.2728 49.5825 20.802C49.1423 19.7669 48.9222 18.6066 48.9222 17.321C48.9222 15.8175 49.2443 14.4338 49.8885 13.17C50.5111 11.9279 51.4344 11.0073 52.6584 10.4081C53.775 9.8524 55.02 9.5746 56.3945 9.5746C58.4983 9.5746 60.2052 10.1793 61.5153 11.3886C62.1806 12.0097 62.7122 12.8268 63.1096 13.84C63.5065 14.8533 63.7052 15.8937 63.7052 16.9614C63.7052 17.3864 63.6381 17.6587 63.5038 17.7786C63.3696 17.8984 63.0557 17.9584 62.5621 17.9584H53.0125ZM59.9051 15.3762C59.7439 14.6463 59.4913 14.0742 59.1478 13.6602C58.493 12.8649 57.6073 12.4672 56.4907 12.4672C55.6214 12.4672 54.8937 12.7233 54.3087 13.2353C53.7237 13.7474 53.3401 14.461 53.1572 15.3762H59.9051ZM70.2252 11.8462C70.7727 11.138 71.3038 10.6314 71.8196 10.3263C72.6566 9.82515 73.6232 9.5746 74.7181 9.5746C76.4784 9.5746 77.8635 10.1574 78.8728 11.3232C79.2913 11.8135 79.5841 12.3583 79.7506 12.9575C79.9165 13.5568 80 14.3521 80 15.3435V23.3841C80 23.8962 79.9355 24.2176 79.8066 24.3483C79.6776 24.4791 79.3664 24.5444 78.8728 24.5444H77.1337C76.6507 24.5444 76.3389 24.4791 76.1994 24.3483C76.0704 24.2067 76.0065 23.8853 76.0065 23.3841V16.5202C76.0065 15.4089 75.8775 14.6245 75.6197 14.1669C75.1906 13.4042 74.4069 13.0229 73.2686 13.0229C72.2381 13.0229 71.4729 13.3524 70.974 14.0116C70.4746 14.6708 70.2252 15.6813 70.2252 17.0432V23.3841C70.2252 23.8962 70.1607 24.2176 70.0318 24.3483C69.9029 24.4791 69.5863 24.5444 69.0816 24.5444H67.3589C66.8648 24.5444 66.5535 24.4791 66.4246 24.3483C66.2956 24.2176 66.2312 23.8962 66.2312 23.3841V11.2089C66.2312 10.6968 66.2956 10.3754 66.4246 10.2446C66.5535 10.1139 66.8648 10.0485 67.3589 10.0485H69.0816C69.5863 10.0485 69.9029 10.1139 70.0318 10.2446C70.1607 10.3754 70.2252 10.6968 70.2252 11.2089V11.8462ZM32.3882 0H34.5868C35.194 0 35.6862 0.499493 35.6862 1.11566V23.4288C35.6862 24.0449 35.194 24.5444 34.5868 24.5444H32.3882C31.781 24.5444 31.2889 24.0449 31.2889 23.4288V1.11566C31.2889 0.499493 31.781 0 32.3882 0ZM15.5923 30.1274L14.689 31.2223C14.3466 31.6473 14.0455 31.8597 13.7857 31.8597C13.6558 31.8597 13.5436 31.8325 13.4492 31.778C13.3547 31.7235 13.0949 31.5274 12.6698 31.1897C12.3982 30.9936 11.9908 30.8193 11.4477 30.6667C10.9045 30.5142 10.4027 30.4379 9.94213 30.4379C8.90303 30.4379 8.05878 30.7103 7.40931 31.2551C6.83071 31.7345 6.54143 32.2901 6.54143 32.922C6.54143 33.5321 6.79821 34.0306 7.31186 34.4173C7.82552 34.8041 8.79084 35.2372 10.2078 35.7166C11.554 36.1633 12.5577 36.5419 13.2189 36.8524C13.8802 37.1629 14.4883 37.5306 15.0432 37.9555C16.4721 39.0668 17.1864 40.6302 17.1864 42.6459C17.1864 45.0537 16.2713 46.9385 14.4411 48.3004C12.906 49.4335 11.0108 50 8.75544 50C6.93698 50 5.28974 49.5914 3.81373 48.7743C3.02258 48.3385 2.30525 47.8183 1.6617 47.2136C1.01816 46.6089 0.696387 46.154 0.696387 45.849C0.696387 45.6529 0.891222 45.3805 1.28089 45.0318L2.48532 43.9532C2.87499 43.6046 3.16429 43.4303 3.35321 43.4303C3.58938 43.4303 3.80783 43.5392 4.00856 43.7571C4.55174 44.3782 4.90008 44.754 5.05358 44.8848C5.20709 45.0155 5.46096 45.1735 5.81523 45.3587C6.70081 45.8054 7.63364 46.0288 8.61371 46.0288C9.82999 46.0288 10.7805 45.6692 11.4654 44.9502C12.044 44.3509 12.3333 43.6646 12.3333 42.891C12.3333 41.9649 11.8905 41.2131 11.0049 40.6357C10.5798 40.3524 9.46393 39.9058 7.65726 39.2956C5.81518 38.6855 4.45728 38.0372 3.58348 37.3508C2.32 36.3703 1.68827 35.0139 1.68827 33.2815C1.68827 30.9282 2.75099 29.1305 4.87646 27.8885C6.15175 27.1476 7.61002 26.7772 9.25139 26.7772C10.4086 26.7772 11.5923 26.9651 12.8026 27.341C14.013 27.7169 14.996 28.2044 15.7517 28.8036C15.9525 28.9562 16.0528 29.1414 16.0528 29.3593C16.0528 29.5118 15.8993 29.7679 15.5923 30.1274ZM23.6771 36.1251V43.1688C23.6771 44.1058 23.8382 44.8194 24.1603 45.3097C24.6863 46.0833 25.4915 46.47 26.5758 46.47C27.542 46.47 28.2693 46.1922 28.7578 45.6365C29.2463 45.0809 29.4905 44.2583 29.4905 43.1688V36.1251C29.4905 35.6131 29.555 35.2917 29.6838 35.1609C29.8126 35.0302 30.124 34.9648 30.6178 34.9648H32.357C32.8508 34.9648 33.1621 35.0302 33.291 35.1609C33.4198 35.2917 33.4842 35.6131 33.4842 36.1251V43.8552C33.4842 45.6965 32.9743 47.1128 31.9544 48.1043C30.6983 49.3245 28.9108 49.9346 26.5919 49.9346C24.2622 49.9346 22.4694 49.3245 21.2133 48.1043C20.1934 47.1019 19.6835 45.6856 19.6835 43.8552V36.1251C19.6835 35.6131 19.7479 35.2917 19.8767 35.1609C20.0056 35.0302 20.3169 34.9648 20.8107 34.9648H22.5338C23.0384 34.9648 23.3551 35.0302 23.4839 35.1609C23.6127 35.2917 23.6771 35.6131 23.6771 36.1251ZM50.407 38.4621V48.3004C50.407 48.8125 50.3426 49.1339 50.2138 49.2646C50.0849 49.3953 49.7736 49.4607 49.2797 49.4607H47.5405C47.0574 49.4607 46.7461 49.3953 46.6066 49.2646C46.4777 49.123 46.4133 48.8016 46.4133 48.3004V38.4621H45.2295C44.7464 38.4621 44.4351 38.3968 44.2955 38.266C44.1667 38.1244 44.1023 37.8085 44.1023 37.3182V36.1251C44.1023 35.6131 44.1667 35.2917 44.2955 35.1609C44.4244 35.0302 44.7357 34.9648 45.2295 34.9648H46.4133V31.1897C46.4133 30.6776 46.4777 30.3562 46.6066 30.2255C46.7354 30.0947 47.0467 30.0294 47.5405 30.0294H49.2797C49.7628 30.0294 50.0742 30.0947 50.2138 30.2255C50.3426 30.3671 50.407 30.6885 50.407 31.1897V34.9648H53.1974C53.7016 34.9648 54.0186 35.0302 54.147 35.1609C54.276 35.2917 54.3405 35.6131 54.3405 36.1251V37.3182C54.3405 37.8193 54.276 38.1353 54.147 38.266C54.0186 38.3968 53.7016 38.4621 53.1974 38.4621H50.407ZM59.7116 42.8746C59.755 44.1058 60.0662 45.0537 60.646 45.7183C61.2685 46.4156 62.1272 46.7642 63.2227 46.7642C64.575 46.7642 65.6219 46.2303 66.3628 45.1626C66.5023 44.9665 66.6793 44.8684 66.8938 44.8684C66.9261 44.8684 67.1195 44.8957 67.4736 44.9502L68.9231 45.1953C69.3205 45.2607 69.589 45.3424 69.7285 45.4405C69.868 45.5385 69.9377 45.7019 69.9377 45.9307C69.9377 46.1377 69.8252 46.4264 69.5995 46.7969C69.3739 47.1673 69.1054 47.505 68.7942 47.8101C67.3663 49.2265 65.5252 49.9346 63.2708 49.9346C61.8535 49.9346 60.5492 49.6296 59.3576 49.0195C57.9297 48.2895 56.9045 47.1891 56.282 45.7183C55.8418 44.6832 55.6214 43.5229 55.6214 42.2373C55.6214 40.7337 55.9438 39.3501 56.588 38.0863C57.2105 36.8442 58.1337 35.9236 59.3576 35.3244C60.4742 34.7687 61.7192 34.4909 63.0937 34.4909C65.198 34.4909 66.9049 35.0955 68.2144 36.3049C68.8803 36.9259 69.4114 37.7431 69.8088 38.7563C70.2062 39.7695 70.4049 40.81 70.4049 41.8777C70.4049 42.3027 70.3378 42.575 70.2035 42.6949C70.0693 42.8147 69.7549 42.8746 69.2613 42.8746H59.7116ZM66.6043 40.2925C66.4431 39.5625 66.191 38.9906 65.8475 38.5765C65.1922 37.7812 64.3065 37.3835 63.1905 37.3835C62.3206 37.3835 61.5935 37.6396 61.0085 38.1516C60.4229 38.6637 60.0393 39.3773 59.857 40.2925H66.6043ZM38.2513 34.5853H40.45C41.0571 34.5853 41.5493 35.0848 41.5493 35.701V48.345C41.5493 48.9612 41.0571 49.4607 40.45 49.4607H38.2513C37.6442 49.4607 37.1519 48.9612 37.1519 48.345V35.701C37.1519 35.0848 37.6442 34.5853 38.2513 34.5853ZM75.9954 49.8326C74.5786 49.8326 73.4303 48.6671 73.4303 47.2294C73.4303 45.7917 74.5786 44.6262 75.9954 44.6262C77.4116 44.6262 78.5605 45.7917 78.5605 47.2294C78.5605 48.6671 77.4116 49.8326 75.9954 49.8326Z" fill="white"/>
<path fill-rule="evenodd" clip-rule="evenodd" d="M46.2321 13.1655L46.2358 13.1692C44.8883 13.0487 43.8722 13.2948 43.1875 13.9077C42.5028 14.5206 42.1903 15.4771 42.25 16.7773L42.2486 16.7759C42.2495 16.8043 42.25 16.8329 42.25 16.8615C42.25 16.8836 42.2497 16.9056 42.2492 16.9274L42.25 16.9266C42.1903 18.2396 42.5028 19.2025 43.1875 19.8154C43.8378 20.3975 44.8043 20.6488 46.087 20.5692C46.1469 20.5628 46.2075 20.5583 46.2685 20.556C46.2766 20.5553 46.2847 20.5546 46.2929 20.5538L46.2916 20.5551C46.3193 20.5542 46.3471 20.5538 46.375 20.5538C47.8248 20.5538 49 21.711 49 23.1385C49 24.5659 47.8248 25.7231 46.375 25.7231C46.2662 25.7231 46.159 25.7165 46.0536 25.7039C44.7876 25.6319 43.8322 25.8845 43.1875 26.4615C42.5028 27.0744 42.1903 28.0236 42.25 29.3093L42.2477 29.307C42.2492 29.343 42.25 29.3791 42.25 29.4154C42.25 30.8428 41.0747 32 39.625 32C38.1752 32 37 30.8428 37 29.4154C37 27.9879 38.1752 26.8308 39.625 26.8308C39.6565 26.8308 39.6879 26.8313 39.7192 26.8324L39.7175 26.8308C39.7293 26.8318 39.741 26.8328 39.7527 26.8338C39.8016 26.8361 39.8501 26.8397 39.8982 26.8446C41.1866 26.9289 42.158 26.6781 42.8125 26.0923C43.4972 25.4794 43.8099 24.5393 43.7508 23.2718L43.7535 23.2745C43.7512 23.2294 43.75 23.1841 43.75 23.1385C43.75 23.0891 43.7514 23.0401 43.7542 22.9914C43.7961 21.7197 43.4822 20.7841 42.8125 20.1846C42.1691 19.6087 41.2098 19.3566 39.9347 19.4283C39.8563 19.4374 39.7768 19.4431 39.6965 19.4452C39.6929 19.4455 39.6892 19.4459 39.6855 19.4461L39.6862 19.4455C39.6659 19.4459 39.6454 19.4461 39.625 19.4461C38.1752 19.4461 37 18.289 37 16.8615C37 15.4341 38.1752 14.2769 39.625 14.2769C39.6454 14.2769 39.6659 14.2772 39.6862 14.2776L39.6855 14.2769C39.6892 14.2772 39.6929 14.2775 39.6965 14.2779C39.7768 14.28 39.8563 14.2856 39.9347 14.2947C41.2098 14.3665 42.1691 14.1144 42.8125 13.5385C43.4807 12.9404 43.7946 12.0064 43.7545 10.7366C43.7515 10.6863 43.75 10.6356 43.75 10.5846C43.75 9.15716 44.9253 8 46.375 8C47.8248 8 49 9.15716 49 10.5846C49 12.0121 47.8248 13.1692 46.375 13.1692C46.327 13.1692 46.2794 13.1679 46.2321 13.1655Z" fill="#B74AFF"/>
</svg>
